<mxfile host="app.diagrams.net" agent="Mozilla/5.0 (Windows NT 10.0; Win64; x64) AppleWebKit/537.36 (KHTML, like Gecko) Chrome/132.0.0.0 Safari/537.36" version="26.0.2">
  <diagram name="Page-1" id="ICHI7zh0GiTJDs3m6_12">
    <mxGraphModel dx="838" dy="565" grid="1" gridSize="10" guides="1" tooltips="1" connect="1" arrows="1" fold="1" page="1" pageScale="1" pageWidth="850" pageHeight="1100" math="0" shadow="0">
      <root>
        <mxCell id="0" />
        <mxCell id="1" parent="0" />
        <mxCell id="2MC0uEMfzmIZajl9Lpao-1" value="LAZ" style="ellipse;whiteSpace=wrap;html=1;" vertex="1" parent="1">
          <mxGeometry x="315" y="430" width="70" height="30" as="geometry" />
        </mxCell>
        <mxCell id="2MC0uEMfzmIZajl9Lpao-2" value="Am" style="ellipse;whiteSpace=wrap;html=1;" vertex="1" parent="1">
          <mxGeometry x="240" y="240" width="70" height="30" as="geometry" />
        </mxCell>
        <mxCell id="2MC0uEMfzmIZajl9Lpao-3" value="Math" style="ellipse;whiteSpace=wrap;html=1;" vertex="1" parent="1">
          <mxGeometry x="110" y="380" width="70" height="30" as="geometry" />
        </mxCell>
        <mxCell id="2MC0uEMfzmIZajl9Lpao-4" value="ToFS" style="ellipse;whiteSpace=wrap;html=1;" vertex="1" parent="1">
          <mxGeometry x="260" y="610" width="70" height="30" as="geometry" />
        </mxCell>
        <mxCell id="2MC0uEMfzmIZajl9Lpao-5" value="ToFL" style="ellipse;whiteSpace=wrap;html=1;" vertex="1" parent="1">
          <mxGeometry x="90" y="550" width="70" height="30" as="geometry" />
        </mxCell>
        <mxCell id="2MC0uEMfzmIZajl9Lpao-6" value="Sch" style="ellipse;whiteSpace=wrap;html=1;" vertex="1" parent="1">
          <mxGeometry x="450" y="570" width="70" height="30" as="geometry" />
        </mxCell>
        <mxCell id="2MC0uEMfzmIZajl9Lpao-7" value="Ru&lt;span style=&quot;color: rgba(0, 0, 0, 0); font-family: monospace; font-size: 0px; text-align: start; text-wrap-mode: nowrap;&quot;&gt;%3CmxGraphModel%3E%3Croot%3E%3CmxCell%20id%3D%220%22%2F%3E%3CmxCell%20id%3D%221%22%20parent%3D%220%22%2F%3E%3CmxCell%20id%3D%222%22%20value%3D%22Sch%22%20style%3D%22ellipse%3BwhiteSpace%3Dwrap%3Bhtml%3D1%3B%22%20vertex%3D%221%22%20parent%3D%221%22%3E%3CmxGeometry%20x%3D%22600%22%20y%3D%22340%22%20width%3D%2270%22%20height%3D%2230%22%20as%3D%22geometry%22%2F%3E%3C%2FmxCell%3E%3C%2Froot%3E%3C%2FmxGraphModel%3E&lt;/span&gt;" style="ellipse;whiteSpace=wrap;html=1;" vertex="1" parent="1">
          <mxGeometry x="730" y="550" width="70" height="30" as="geometry" />
        </mxCell>
        <mxCell id="2MC0uEMfzmIZajl9Lpao-8" value="Baku" style="ellipse;whiteSpace=wrap;html=1;" vertex="1" parent="1">
          <mxGeometry x="600" y="690" width="70" height="30" as="geometry" />
        </mxCell>
        <mxCell id="2MC0uEMfzmIZajl9Lpao-9" value="Lit" style="ellipse;whiteSpace=wrap;html=1;" vertex="1" parent="1">
          <mxGeometry x="560" y="450" width="70" height="30" as="geometry" />
        </mxCell>
        <mxCell id="2MC0uEMfzmIZajl9Lpao-10" value="Class" style="ellipse;whiteSpace=wrap;html=1;" vertex="1" parent="1">
          <mxGeometry x="410" y="270" width="70" height="30" as="geometry" />
        </mxCell>
        <mxCell id="2MC0uEMfzmIZajl9Lpao-11" value="Transl" style="ellipse;whiteSpace=wrap;html=1;" vertex="1" parent="1">
          <mxGeometry x="560" y="335" width="70" height="30" as="geometry" />
        </mxCell>
        <mxCell id="2MC0uEMfzmIZajl9Lpao-12" value="" style="rounded=0;whiteSpace=wrap;html=1;" vertex="1" parent="1">
          <mxGeometry x="70" y="10" width="120" height="60" as="geometry" />
        </mxCell>
        <mxCell id="2MC0uEMfzmIZajl9Lpao-33" style="rounded=0;orthogonalLoop=1;jettySize=auto;html=1;exitX=0.5;exitY=0;exitDx=0;exitDy=0;entryX=1;entryY=1;entryDx=0;entryDy=0;" edge="1" parent="1" source="2MC0uEMfzmIZajl9Lpao-14" target="2MC0uEMfzmIZajl9Lpao-2">
          <mxGeometry relative="1" as="geometry" />
        </mxCell>
        <mxCell id="2MC0uEMfzmIZajl9Lpao-34" value="who" style="edgeLabel;html=1;align=center;verticalAlign=middle;resizable=0;points=[];" vertex="1" connectable="0" parent="2MC0uEMfzmIZajl9Lpao-33">
          <mxGeometry x="-0.0444" y="1" relative="1" as="geometry">
            <mxPoint as="offset" />
          </mxGeometry>
        </mxCell>
        <mxCell id="2MC0uEMfzmIZajl9Lpao-36" style="rounded=0;orthogonalLoop=1;jettySize=auto;html=1;exitX=0.5;exitY=1;exitDx=0;exitDy=0;entryX=0;entryY=0;entryDx=0;entryDy=0;" edge="1" parent="1" source="2MC0uEMfzmIZajl9Lpao-14" target="2MC0uEMfzmIZajl9Lpao-1">
          <mxGeometry relative="1" as="geometry" />
        </mxCell>
        <mxCell id="2MC0uEMfzmIZajl9Lpao-37" value="who" style="edgeLabel;html=1;align=center;verticalAlign=middle;resizable=0;points=[];" vertex="1" connectable="0" parent="2MC0uEMfzmIZajl9Lpao-36">
          <mxGeometry x="-0.0235" y="-2" relative="1" as="geometry">
            <mxPoint as="offset" />
          </mxGeometry>
        </mxCell>
        <mxCell id="2MC0uEMfzmIZajl9Lpao-14" value="was&lt;span style=&quot;color: rgba(0, 0, 0, 0); font-family: monospace; font-size: 0px; text-align: start; text-wrap-mode: nowrap;&quot;&gt;%3CmxGraphModel%3E%3Croot%3E%3CmxCell%20id%3D%220%22%2F%3E%3CmxCell%20id%3D%221%22%20parent%3D%220%22%2F%3E%3CmxCell%20id%3D%222%22%20value%3D%22%22%20style%3D%22rounded%3D0%3BwhiteSpace%3Dwrap%3Bhtml%3D1%3B%22%20vertex%3D%221%22%20parent%3D%221%22%3E%3CmxGeometry%20x%3D%22290%22%20y%3D%22340%22%20width%3D%2250%22%20height%3D%2220%22%20as%3D%22geometry%22%2F%3E%3C%2FmxCell%3E%3C%2Froot%3E%3C%2FmxGraphModel%3E&lt;/span&gt;" style="rounded=0;whiteSpace=wrap;html=1;" vertex="1" parent="1">
          <mxGeometry x="290" y="340" width="50" height="20" as="geometry" />
        </mxCell>
        <mxCell id="2MC0uEMfzmIZajl9Lpao-28" style="rounded=0;orthogonalLoop=1;jettySize=auto;html=1;exitX=0;exitY=0.5;exitDx=0;exitDy=0;entryX=1;entryY=0.5;entryDx=0;entryDy=0;" edge="1" parent="1" source="2MC0uEMfzmIZajl9Lpao-15" target="2MC0uEMfzmIZajl9Lpao-3">
          <mxGeometry relative="1" as="geometry" />
        </mxCell>
        <mxCell id="2MC0uEMfzmIZajl9Lpao-29" value="who" style="edgeLabel;html=1;align=center;verticalAlign=middle;resizable=0;points=[];" vertex="1" connectable="0" parent="2MC0uEMfzmIZajl9Lpao-28">
          <mxGeometry x="0.0022" y="4" relative="1" as="geometry">
            <mxPoint as="offset" />
          </mxGeometry>
        </mxCell>
        <mxCell id="2MC0uEMfzmIZajl9Lpao-30" style="rounded=0;orthogonalLoop=1;jettySize=auto;html=1;exitX=1;exitY=0.5;exitDx=0;exitDy=0;entryX=0;entryY=0.5;entryDx=0;entryDy=0;" edge="1" parent="1" source="2MC0uEMfzmIZajl9Lpao-15" target="2MC0uEMfzmIZajl9Lpao-1">
          <mxGeometry relative="1" as="geometry" />
        </mxCell>
        <mxCell id="2MC0uEMfzmIZajl9Lpao-31" value="who" style="edgeLabel;html=1;align=center;verticalAlign=middle;resizable=0;points=[];" vertex="1" connectable="0" parent="2MC0uEMfzmIZajl9Lpao-30">
          <mxGeometry x="-0.0151" relative="1" as="geometry">
            <mxPoint as="offset" />
          </mxGeometry>
        </mxCell>
        <mxCell id="2MC0uEMfzmIZajl9Lpao-15" value="was" style="rounded=0;whiteSpace=wrap;html=1;" vertex="1" parent="1">
          <mxGeometry x="220" y="410" width="50" height="20" as="geometry" />
        </mxCell>
        <mxCell id="2MC0uEMfzmIZajl9Lpao-38" style="rounded=0;orthogonalLoop=1;jettySize=auto;html=1;exitX=1;exitY=0;exitDx=0;exitDy=0;entryX=0;entryY=1;entryDx=0;entryDy=0;" edge="1" parent="1" source="2MC0uEMfzmIZajl9Lpao-16" target="2MC0uEMfzmIZajl9Lpao-1">
          <mxGeometry relative="1" as="geometry" />
        </mxCell>
        <mxCell id="2MC0uEMfzmIZajl9Lpao-39" value="who" style="edgeLabel;html=1;align=center;verticalAlign=middle;resizable=0;points=[];" vertex="1" connectable="0" parent="2MC0uEMfzmIZajl9Lpao-38">
          <mxGeometry x="-0.0718" y="3" relative="1" as="geometry">
            <mxPoint as="offset" />
          </mxGeometry>
        </mxCell>
        <mxCell id="2MC0uEMfzmIZajl9Lpao-40" value="what" style="rounded=0;orthogonalLoop=1;jettySize=auto;html=1;exitX=0;exitY=1;exitDx=0;exitDy=0;entryX=1;entryY=0;entryDx=0;entryDy=0;" edge="1" parent="1" source="2MC0uEMfzmIZajl9Lpao-16" target="2MC0uEMfzmIZajl9Lpao-5">
          <mxGeometry relative="1" as="geometry" />
        </mxCell>
        <mxCell id="2MC0uEMfzmIZajl9Lpao-16" value="founded" style="rounded=0;whiteSpace=wrap;html=1;" vertex="1" parent="1">
          <mxGeometry x="210" y="490" width="50" height="20" as="geometry" />
        </mxCell>
        <mxCell id="2MC0uEMfzmIZajl9Lpao-43" style="rounded=0;orthogonalLoop=1;jettySize=auto;html=1;exitX=0.5;exitY=1;exitDx=0;exitDy=0;" edge="1" parent="1" source="2MC0uEMfzmIZajl9Lpao-17" target="2MC0uEMfzmIZajl9Lpao-4">
          <mxGeometry relative="1" as="geometry" />
        </mxCell>
        <mxCell id="2MC0uEMfzmIZajl9Lpao-44" value="what" style="edgeLabel;html=1;align=center;verticalAlign=middle;resizable=0;points=[];" vertex="1" connectable="0" parent="2MC0uEMfzmIZajl9Lpao-43">
          <mxGeometry x="0.0585" y="-5" relative="1" as="geometry">
            <mxPoint as="offset" />
          </mxGeometry>
        </mxCell>
        <mxCell id="2MC0uEMfzmIZajl9Lpao-17" value="founded" style="rounded=0;whiteSpace=wrap;html=1;" vertex="1" parent="1">
          <mxGeometry x="290" y="530" width="50" height="20" as="geometry" />
        </mxCell>
        <mxCell id="2MC0uEMfzmIZajl9Lpao-47" style="rounded=0;orthogonalLoop=1;jettySize=auto;html=1;exitX=0.75;exitY=1;exitDx=0;exitDy=0;entryX=0.5;entryY=0;entryDx=0;entryDy=0;" edge="1" parent="1" source="2MC0uEMfzmIZajl9Lpao-18" target="2MC0uEMfzmIZajl9Lpao-6">
          <mxGeometry relative="1" as="geometry" />
        </mxCell>
        <mxCell id="2MC0uEMfzmIZajl9Lpao-48" value="where" style="edgeLabel;html=1;align=center;verticalAlign=middle;resizable=0;points=[];" vertex="1" connectable="0" parent="2MC0uEMfzmIZajl9Lpao-47">
          <mxGeometry x="-0.0555" y="1" relative="1" as="geometry">
            <mxPoint y="-1" as="offset" />
          </mxGeometry>
        </mxCell>
        <mxCell id="2MC0uEMfzmIZajl9Lpao-18" value="studied&lt;span style=&quot;color: rgba(0, 0, 0, 0); font-family: monospace; font-size: 0px; text-align: start; text-wrap-mode: nowrap;&quot;&gt;%3CmxGraphModel%3E%3Croot%3E%3CmxCell%20id%3D%220%22%2F%3E%3CmxCell%20id%3D%221%22%20parent%3D%220%22%2F%3E%3CmxCell%20id%3D%222%22%20value%3D%22%22%20style%3D%22rounded%3D0%3BwhiteSpace%3Dwrap%3Bhtml%3D1%3B%22%20vertex%3D%221%22%20parent%3D%221%22%3E%3CmxGeometry%20x%3D%22290%22%20y%3D%22340%22%20width%3D%2250%22%20height%3D%2220%22%20as%3D%22geometry%22%2F%3E%3C%2FmxCell%3E%3C%2Froot%3E%3C%2FmxGraphModel%3E&lt;/span&gt;" style="rounded=0;whiteSpace=wrap;html=1;" vertex="1" parent="1">
          <mxGeometry x="400" y="500" width="50" height="20" as="geometry" />
        </mxCell>
        <mxCell id="2MC0uEMfzmIZajl9Lpao-49" style="rounded=0;orthogonalLoop=1;jettySize=auto;html=1;exitX=0.25;exitY=0;exitDx=0;exitDy=0;entryX=1;entryY=1;entryDx=0;entryDy=0;" edge="1" parent="1" source="2MC0uEMfzmIZajl9Lpao-19" target="2MC0uEMfzmIZajl9Lpao-6">
          <mxGeometry relative="1" as="geometry" />
        </mxCell>
        <mxCell id="2MC0uEMfzmIZajl9Lpao-50" value="what" style="edgeLabel;html=1;align=center;verticalAlign=middle;resizable=0;points=[];" vertex="1" connectable="0" parent="2MC0uEMfzmIZajl9Lpao-49">
          <mxGeometry x="0.0401" y="5" relative="1" as="geometry">
            <mxPoint as="offset" />
          </mxGeometry>
        </mxCell>
        <mxCell id="2MC0uEMfzmIZajl9Lpao-51" style="rounded=0;orthogonalLoop=1;jettySize=auto;html=1;exitX=0.75;exitY=1;exitDx=0;exitDy=0;entryX=0;entryY=0;entryDx=0;entryDy=0;" edge="1" parent="1" source="2MC0uEMfzmIZajl9Lpao-19" target="2MC0uEMfzmIZajl9Lpao-8">
          <mxGeometry relative="1" as="geometry" />
        </mxCell>
        <mxCell id="2MC0uEMfzmIZajl9Lpao-52" value="where" style="edgeLabel;html=1;align=center;verticalAlign=middle;resizable=0;points=[];" vertex="1" connectable="0" parent="2MC0uEMfzmIZajl9Lpao-51">
          <mxGeometry x="-0.1662" y="-1" relative="1" as="geometry">
            <mxPoint y="-1" as="offset" />
          </mxGeometry>
        </mxCell>
        <mxCell id="2MC0uEMfzmIZajl9Lpao-19" value="was located" style="rounded=0;whiteSpace=wrap;html=1;" vertex="1" parent="1">
          <mxGeometry x="530" y="640" width="80" height="20" as="geometry" />
        </mxCell>
        <mxCell id="2MC0uEMfzmIZajl9Lpao-53" style="rounded=0;orthogonalLoop=1;jettySize=auto;html=1;exitX=0;exitY=0.5;exitDx=0;exitDy=0;entryX=1;entryY=1;entryDx=0;entryDy=0;" edge="1" parent="1" source="2MC0uEMfzmIZajl9Lpao-20" target="2MC0uEMfzmIZajl9Lpao-1">
          <mxGeometry relative="1" as="geometry" />
        </mxCell>
        <mxCell id="2MC0uEMfzmIZajl9Lpao-54" value="who" style="edgeLabel;html=1;align=center;verticalAlign=middle;resizable=0;points=[];" vertex="1" connectable="0" parent="2MC0uEMfzmIZajl9Lpao-53">
          <mxGeometry x="0.0115" y="2" relative="1" as="geometry">
            <mxPoint as="offset" />
          </mxGeometry>
        </mxCell>
        <mxCell id="2MC0uEMfzmIZajl9Lpao-55" style="rounded=0;orthogonalLoop=1;jettySize=auto;html=1;exitX=1;exitY=0.75;exitDx=0;exitDy=0;entryX=0;entryY=0.5;entryDx=0;entryDy=0;" edge="1" parent="1" source="2MC0uEMfzmIZajl9Lpao-20" target="2MC0uEMfzmIZajl9Lpao-9">
          <mxGeometry relative="1" as="geometry" />
        </mxCell>
        <mxCell id="2MC0uEMfzmIZajl9Lpao-56" value="what" style="edgeLabel;html=1;align=center;verticalAlign=middle;resizable=0;points=[];" vertex="1" connectable="0" parent="2MC0uEMfzmIZajl9Lpao-55">
          <mxGeometry x="-0.0877" y="1" relative="1" as="geometry">
            <mxPoint as="offset" />
          </mxGeometry>
        </mxCell>
        <mxCell id="2MC0uEMfzmIZajl9Lpao-20" value="loved" style="rounded=0;whiteSpace=wrap;html=1;" vertex="1" parent="1">
          <mxGeometry x="460" y="440" width="50" height="20" as="geometry" />
        </mxCell>
        <mxCell id="2MC0uEMfzmIZajl9Lpao-21" value="loved" style="rounded=0;whiteSpace=wrap;html=1;" vertex="1" parent="1">
          <mxGeometry x="385" y="360" width="50" height="20" as="geometry" />
        </mxCell>
        <mxCell id="2MC0uEMfzmIZajl9Lpao-57" style="rounded=0;orthogonalLoop=1;jettySize=auto;html=1;exitX=0.25;exitY=0;exitDx=0;exitDy=0;entryX=1;entryY=1;entryDx=0;entryDy=0;" edge="1" parent="1" source="2MC0uEMfzmIZajl9Lpao-22" target="2MC0uEMfzmIZajl9Lpao-9">
          <mxGeometry relative="1" as="geometry" />
        </mxCell>
        <mxCell id="2MC0uEMfzmIZajl9Lpao-58" value="what" style="edgeLabel;html=1;align=center;verticalAlign=middle;resizable=0;points=[];" vertex="1" connectable="0" parent="2MC0uEMfzmIZajl9Lpao-57">
          <mxGeometry x="0.1899" relative="1" as="geometry">
            <mxPoint as="offset" />
          </mxGeometry>
        </mxCell>
        <mxCell id="2MC0uEMfzmIZajl9Lpao-59" style="rounded=0;orthogonalLoop=1;jettySize=auto;html=1;exitX=1;exitY=0.75;exitDx=0;exitDy=0;entryX=0;entryY=0;entryDx=0;entryDy=0;" edge="1" parent="1" source="2MC0uEMfzmIZajl9Lpao-22" target="2MC0uEMfzmIZajl9Lpao-7">
          <mxGeometry relative="1" as="geometry" />
        </mxCell>
        <mxCell id="2MC0uEMfzmIZajl9Lpao-60" value="which" style="edgeLabel;html=1;align=center;verticalAlign=middle;resizable=0;points=[];" vertex="1" connectable="0" parent="2MC0uEMfzmIZajl9Lpao-59">
          <mxGeometry x="0.0951" y="1" relative="1" as="geometry">
            <mxPoint as="offset" />
          </mxGeometry>
        </mxCell>
        <mxCell id="2MC0uEMfzmIZajl9Lpao-22" value="was" style="rounded=0;whiteSpace=wrap;html=1;" vertex="1" parent="1">
          <mxGeometry x="660" y="500" width="50" height="20" as="geometry" />
        </mxCell>
        <mxCell id="2MC0uEMfzmIZajl9Lpao-67" style="rounded=0;orthogonalLoop=1;jettySize=auto;html=1;exitX=0;exitY=1;exitDx=0;exitDy=0;entryX=1;entryY=0;entryDx=0;entryDy=0;" edge="1" parent="1" source="2MC0uEMfzmIZajl9Lpao-24" target="2MC0uEMfzmIZajl9Lpao-1">
          <mxGeometry relative="1" as="geometry" />
        </mxCell>
        <mxCell id="2MC0uEMfzmIZajl9Lpao-68" value="who" style="edgeLabel;html=1;align=center;verticalAlign=middle;resizable=0;points=[];" vertex="1" connectable="0" parent="2MC0uEMfzmIZajl9Lpao-67">
          <mxGeometry x="0.0535" y="1" relative="1" as="geometry">
            <mxPoint as="offset" />
          </mxGeometry>
        </mxCell>
        <mxCell id="2MC0uEMfzmIZajl9Lpao-69" style="rounded=0;orthogonalLoop=1;jettySize=auto;html=1;exitX=1;exitY=0.5;exitDx=0;exitDy=0;entryX=0;entryY=1;entryDx=0;entryDy=0;" edge="1" parent="1" source="2MC0uEMfzmIZajl9Lpao-24" target="2MC0uEMfzmIZajl9Lpao-11">
          <mxGeometry relative="1" as="geometry" />
        </mxCell>
        <mxCell id="2MC0uEMfzmIZajl9Lpao-70" value="what" style="edgeLabel;html=1;align=center;verticalAlign=middle;resizable=0;points=[];" vertex="1" connectable="0" parent="2MC0uEMfzmIZajl9Lpao-69">
          <mxGeometry x="0.0482" y="5" relative="1" as="geometry">
            <mxPoint y="1" as="offset" />
          </mxGeometry>
        </mxCell>
        <mxCell id="2MC0uEMfzmIZajl9Lpao-24" value="read" style="rounded=0;whiteSpace=wrap;html=1;" vertex="1" parent="1">
          <mxGeometry x="470" y="380" width="50" height="20" as="geometry" />
        </mxCell>
        <mxCell id="2MC0uEMfzmIZajl9Lpao-71" style="rounded=0;orthogonalLoop=1;jettySize=auto;html=1;exitX=0;exitY=0;exitDx=0;exitDy=0;entryX=1;entryY=1;entryDx=0;entryDy=0;" edge="1" parent="1" source="2MC0uEMfzmIZajl9Lpao-25" target="2MC0uEMfzmIZajl9Lpao-11">
          <mxGeometry relative="1" as="geometry" />
        </mxCell>
        <mxCell id="2MC0uEMfzmIZajl9Lpao-72" value="what" style="edgeLabel;html=1;align=center;verticalAlign=middle;resizable=0;points=[];" vertex="1" connectable="0" parent="2MC0uEMfzmIZajl9Lpao-71">
          <mxGeometry x="0.0317" y="1" relative="1" as="geometry">
            <mxPoint as="offset" />
          </mxGeometry>
        </mxCell>
        <mxCell id="2MC0uEMfzmIZajl9Lpao-73" style="rounded=0;orthogonalLoop=1;jettySize=auto;html=1;exitX=0.75;exitY=1;exitDx=0;exitDy=0;entryX=0.5;entryY=0;entryDx=0;entryDy=0;" edge="1" parent="1" source="2MC0uEMfzmIZajl9Lpao-25" target="2MC0uEMfzmIZajl9Lpao-7">
          <mxGeometry relative="1" as="geometry" />
        </mxCell>
        <mxCell id="2MC0uEMfzmIZajl9Lpao-74" value="which" style="edgeLabel;html=1;align=center;verticalAlign=middle;resizable=0;points=[];" vertex="1" connectable="0" parent="2MC0uEMfzmIZajl9Lpao-73">
          <mxGeometry x="-0.0016" y="-2" relative="1" as="geometry">
            <mxPoint as="offset" />
          </mxGeometry>
        </mxCell>
        <mxCell id="2MC0uEMfzmIZajl9Lpao-25" value="was" style="rounded=0;whiteSpace=wrap;html=1;" vertex="1" parent="1">
          <mxGeometry x="690" y="410" width="50" height="20" as="geometry" />
        </mxCell>
        <mxCell id="2MC0uEMfzmIZajl9Lpao-41" style="rounded=0;orthogonalLoop=1;jettySize=auto;html=1;exitX=0.5;exitY=0;exitDx=0;exitDy=0;entryX=0.303;entryY=1.033;entryDx=0;entryDy=0;entryPerimeter=0;" edge="1" parent="1" source="2MC0uEMfzmIZajl9Lpao-17" target="2MC0uEMfzmIZajl9Lpao-1">
          <mxGeometry relative="1" as="geometry" />
        </mxCell>
        <mxCell id="2MC0uEMfzmIZajl9Lpao-42" value="who" style="edgeLabel;html=1;align=center;verticalAlign=middle;resizable=0;points=[];" vertex="1" connectable="0" parent="2MC0uEMfzmIZajl9Lpao-41">
          <mxGeometry x="-0.0077" y="1" relative="1" as="geometry">
            <mxPoint as="offset" />
          </mxGeometry>
        </mxCell>
        <mxCell id="2MC0uEMfzmIZajl9Lpao-45" style="rounded=0;orthogonalLoop=1;jettySize=auto;html=1;exitX=0.25;exitY=0;exitDx=0;exitDy=0;entryX=0.611;entryY=1.007;entryDx=0;entryDy=0;entryPerimeter=0;" edge="1" parent="1" source="2MC0uEMfzmIZajl9Lpao-18" target="2MC0uEMfzmIZajl9Lpao-1">
          <mxGeometry relative="1" as="geometry" />
        </mxCell>
        <mxCell id="2MC0uEMfzmIZajl9Lpao-46" value="who" style="edgeLabel;html=1;align=center;verticalAlign=middle;resizable=0;points=[];" vertex="1" connectable="0" parent="2MC0uEMfzmIZajl9Lpao-45">
          <mxGeometry x="0.0077" y="3" relative="1" as="geometry">
            <mxPoint as="offset" />
          </mxGeometry>
        </mxCell>
        <mxCell id="2MC0uEMfzmIZajl9Lpao-61" style="rounded=0;orthogonalLoop=1;jettySize=auto;html=1;exitX=0.25;exitY=1;exitDx=0;exitDy=0;entryX=0.5;entryY=0;entryDx=0;entryDy=0;" edge="1" parent="1" source="2MC0uEMfzmIZajl9Lpao-21" target="2MC0uEMfzmIZajl9Lpao-1">
          <mxGeometry relative="1" as="geometry" />
        </mxCell>
        <mxCell id="2MC0uEMfzmIZajl9Lpao-63" value="who" style="edgeLabel;html=1;align=center;verticalAlign=middle;resizable=0;points=[];" vertex="1" connectable="0" parent="2MC0uEMfzmIZajl9Lpao-61">
          <mxGeometry x="0.0886" y="-1" relative="1" as="geometry">
            <mxPoint as="offset" />
          </mxGeometry>
        </mxCell>
        <mxCell id="2MC0uEMfzmIZajl9Lpao-64" style="rounded=0;orthogonalLoop=1;jettySize=auto;html=1;exitX=0.5;exitY=0;exitDx=0;exitDy=0;entryX=0.5;entryY=1;entryDx=0;entryDy=0;" edge="1" parent="1" source="2MC0uEMfzmIZajl9Lpao-21" target="2MC0uEMfzmIZajl9Lpao-10">
          <mxGeometry relative="1" as="geometry" />
        </mxCell>
        <mxCell id="2MC0uEMfzmIZajl9Lpao-66" value="what" style="edgeLabel;html=1;align=center;verticalAlign=middle;resizable=0;points=[];" vertex="1" connectable="0" parent="2MC0uEMfzmIZajl9Lpao-64">
          <mxGeometry x="-0.047" relative="1" as="geometry">
            <mxPoint as="offset" />
          </mxGeometry>
        </mxCell>
      </root>
    </mxGraphModel>
  </diagram>
</mxfile>
